<?xml version="1.0" encoding="UTF-8"?>
<svg id="Camada_1" data-name="Camada 1" xmlns="http://www.w3.org/2000/svg" xmlns:xlink="http://www.w3.org/1999/xlink" viewBox="0 0 611 150">
  <defs>
    <style>
      .cls-1 {
        fill: #fff;
      }

      .cls-2 {
        fill: #acacae;
        fill-rule: evenodd;
      }

      .cls-3 {
        fill: #2193d1;
      }

      .cls-4 {
        fill: url(#New_Gradient_Swatch_3);
      }
    </style>
    <linearGradient id="New_Gradient_Swatch_3" data-name="New Gradient Swatch 3" x1="153.94" y1="81.16" x2="-3.04" y2="96.02" gradientUnits="userSpaceOnUse">
      <stop offset="0" stop-color="#373f8f"/>
      <stop offset="1" stop-color="#66bdae"/>
    </linearGradient>
  </defs>
  <g>
    <path class="cls-2" d="m137.03,125.14c-2.19-5.73-4.86-12.8-7.14-20.11-4.27-13.73-7.82-27-7.73-27.05,2.74-1.78,27.23-18.01,44.92-27.85.28-.15,5.47-3,5.98-6.54.12-.98,0-1.94-.31-2.86-.89-2.58-3.12-4.9-9.42-5.28-4.94-.36-13.57-.88-23.11-.37-9.31.31-19.26,1.29-26.71,2.52,0,0-2.97-17.78-4.03-25.08-.07-.46-.57-3.23-1.32-4.41-.78-1.2-2.06-2.31-4.14-2.68-.47-.08-.92-.12-1.33-.12h-.14c-1.49.02-2.63.49-3.48,1.09-1.17.81-2.7,3.05-3.12,3.62-4.75,6.5-18.1,25.73-24.76,36.71,0,0-20.79,6.23-33.45,11.37-3.73,1.51-4.09,3.33-4.18,4.31-.07.71-.04,2.58,2.91,4.99,3.69,3.02,15.28,12.35,15.28,12.35-4.1,6.31-19.84,37.63-21.36,46.35-.45,2.52-.4,5.11,1.46,7.49,1.17,1.48,3.28,2.53,5.49,2.61,2.67.04,6.34-2.73,7.9-3.82,12.53-8.73,37-27.04,37-27.04,9.22,8.07,28.68,25.46,38.98,34.78,1.2,1.09,5,4.53,8.69,4.59,7.06.2,9.34-5.68,9.67-7.73.57-4.72-1.83-9.97-2.55-11.83m-59.21-32.37s-17.91-14.55-18.87-15.34c0,0,11.34-20.73,14.87-26,2.18-.59,18.82-3.57,26.67-4.48,0,0,2.34,12.59,5.82,27.07,0,0-23.07,14.93-28.5,18.74m37.14,13.38c2.18,7.29,4.68,14.9,5.91,18.63.33.96.38,1.9.05,2.47-.31.53-.98.74-1.85.36-.37-.17-1.42-.98-1.52-1.07-4.77-4.09-29.52-25.28-29.52-25.28l21.35-14.74s2.78,10.32,5.57,19.63m-67.69,8.04c-.33.22-1.63,1.06-1.97,1.23-2.78,1.33-3.33-.3-3.53-.97-.33-1.32.82-3.68.95-3.95,2.63-5.58,13.21-27.37,13.21-27.37,0,0,13.1,10.9,16.32,13.68,0,0-18.91,13.32-24.99,17.37m-5.95-50.39c-.3-.23-1.22-.91-1.18-1.83.04-.42.28-.86.84-1.22.21-.14.98-.46,1.14-.52,2.18-.79,11.89-4.2,25.13-7.3-3.42,5.82-5.71,9.45-7.31,12.17-3.68,6.29-3.66,6.53-5.18,9.12,0,0-10.81-8.34-13.44-10.42m51.45-40.52c.16-.2,1.42-1.75,2.35-1.75s1.28,1.07,1.38,1.69c.23,1.37.51,3.36,1.05,6.59.79,4.73,1.73,10.19,1.73,10.19-5.12.98-17.39,3.79-21.44,4.93,4.32-6.91,12.33-18.41,14.94-21.65m34.9,21.23c7.68-.36,15.78-.42,16.46-.42,1.94.02,3.54.2,3.85,1.03.39,1.08-.48,2.33-1.88,3.3-.3.2-4.92,3.17-9.87,6.44-7.59,4.98-17.07,11.03-17.07,11.03.06.17-3.62-16.12-4.32-20.47,0,0,6.34-.59,12.84-.9"/>
    <path class="cls-4" d="m167.91,94.41c0-.17,0-.34-.03-.51,0-.05,0-.09-.01-.14,0-.05,0-.09-.02-.14,0-.05-.01-.09-.02-.14,0-.05-.01-.09-.02-.14,0-.05-.02-.09-.02-.14,0-.05-.02-.09-.03-.14,0-.05-.02-.09-.03-.14-.03-.22-.09-.43-.17-.65-.02-.05-.02-.11-.04-.16,0,0,0,0,0-.01-.01-.04-.02-.08-.03-.11,0,0,0-.02-.01-.02-.01-.03-.01-.07-.03-.1,0-.01-.01-.02-.02-.04,0-.03-.01-.06-.02-.09,0-.02-.02-.03-.02-.05,0-.03-.01-.05-.02-.08,0-.02-.02-.04-.03-.06,0-.02,0-.04-.02-.07,0-.03-.03-.05-.04-.08,0-.02,0-.03-.01-.05-.01-.03-.03-.06-.04-.09,0-.01,0-.03,0-.04-.01-.04-.04-.07-.05-.1,0,0,0-.02,0-.03-.01-.04-.04-.07-.06-.11,0,0,0-.01,0-.02-.02-.04-.04-.08-.06-.13,0,0,0,0,0,0-.08-.22-.18-.42-.3-.61-.03-.05-.04-.1-.07-.14-.03-.05-.05-.1-.07-.14-.03-.05-.05-.1-.08-.14-.03-.05-.05-.09-.08-.14-.03-.05-.05-.09-.08-.14-.03-.05-.06-.09-.09-.14-.03-.05-.06-.09-.09-.14-.03-.05-.06-.09-.09-.14-.03-.05-.06-.09-.1-.14-.03-.05-.07-.09-.1-.14-.03-.05-.07-.09-.1-.14-.03-.05-.07-.09-.1-.14-.06-.09-.13-.18-.2-.26-.09-.14-.19-.27-.3-.39-.04-.05-.07-.1-.11-.14-.04-.05-.07-.1-.11-.14-.04-.05-.08-.1-.12-.14-.04-.05-.08-.1-.12-.14-.04-.05-.08-.1-.12-.14-.04-.05-.08-.1-.13-.14-.04-.05-.08-.1-.13-.14-.04-.05-.09-.1-.13-.14-.04-.05-.09-.1-.13-.14-.04-.05-.09-.1-.14-.14-.04-.05-.09-.1-.14-.14-.04-.05-.09-.1-.14-.14-.05-.05-.1-.1-.15-.15-.05-.05-.1-.1-.15-.14-.05-.05-.1-.1-.15-.15-.05-.05-.1-.1-.15-.15-.05-.05-.11-.1-.16-.15-.13-.15-.28-.29-.44-.41-.05-.05-.1-.1-.16-.14-.06-.05-.1-.1-.16-.14-.06-.05-.11-.1-.16-.14-.06-.05-.11-.1-.17-.14-.06-.05-.11-.1-.17-.14-.06-.05-.11-.1-.17-.14-.06-.05-.11-.1-.18-.15-.06-.05-.12-.1-.18-.15-.06-.05-.12-.1-.18-.15-.06-.05-.12-.1-.18-.15-.06-.05-.12-.1-.19-.15-.06-.05-.12-.1-.19-.15-.06-.05-.13-.1-.19-.15-.06-.05-.13-.1-.2-.15-.06-.05-.13-.1-.2-.15-.06-.05-.13-.1-.2-.15-.07-.05-.13-.1-.2-.15-.07-.05-.14-.1-.21-.15-.07-.05-.14-.1-.21-.15-.07-.05-.14-.1-.21-.15-.07-.05-.14-.1-.21-.15-.07-.05-.14-.1-.21-.15-.07-.06-.15-.1-.22-.15-.07-.06-.15-.1-.22-.15-.07-.06-.15-.1-.22-.15-.07-.06-.15-.1-.23-.15-.07-.06-.15-.1-.23-.15-.14-.11-.3-.21-.46-.3-.08-.05-.15-.1-.23-.15-.08-.05-.15-.1-.23-.15-.08-.05-.15-.11-.24-.15-.08-.05-.15-.1-.24-.15-.08-.05-.16-.1-.24-.15-.08-.05-.16-.1-.24-.15-.08-.05-.16-.1-.25-.15-.08-.05-.16-.1-.25-.15-.08-.05-.16-.1-.25-.15-.08-.05-.17-.1-.25-.15-.08-.05-.17-.1-.26-.15-.08-.05-.17-.1-.26-.15-.09-.05-.17-.1-.26-.15-.09-.05-.17-.1-.26-.15-.09-.05-.17-.1-.26-.15-.09-.05-.18-.1-.27-.15-.09-.05-.18-.1-.27-.15-.09-.05-.18-.1-.27-.15-.09-.06-.18-.1-.28-.15-.09-.06-.18-.1-.28-.15-.09-.06-.18-.1-.28-.15-.09-.06-.19-.1-.28-.15-.09-.06-.19-.1-.29-.15-.09-.06-.19-.1-.29-.15-.09-.06-.19-.1-.29-.15-.09-.06-.19-.1-.29-.15-.09-.06-.19-.1-.29-.15-.09-.06-.2-.1-.3-.15-.1-.06-.2-.1-.3-.15-.1-.06-.2-.1-.3-.15-.1-.06-.2-.1-.3-.15-.1-.06-.2-.1-.31-.15-.1-.06-.2-.1-.31-.15-.1-.06-.2-.1-.31-.15-.1-.06-.21-.11-.32-.15-.02-.01-.05-.02-.08-.04-.05-.02-.11-.04-.16-.06,0,0,0,0-.01,0-.1-.06-.21-.1-.31-.15-.1-.06-.21-.1-.32-.15-.1-.06-.21-.1-.32-.15-.1-.06-.21-.1-.32-.15-.1-.06-.21-.1-.32-.15-.1-.06-.21-.1-.33-.15-.1-.06-.22-.1-.33-.15-.1-.06-.22-.1-.33-.15-.1-.06-.22-.1-.33-.15-.1-.07-.22-.1-.33-.15-.1-.07-.22-.1-.34-.15-.1-.07-.22-.1-.34-.15-.1-.07-.23-.1-.34-.15-.11-.07-.23-.1-.34-.15-.11-.07-.23-.1-.34-.15-.11-.07-.23-.1-.35-.15-.11-.07-.23-.1-.35-.15-.11-.07-.23-.1-.35-.15-.11-.07-.24-.1-.35-.15-.11-.07-.24-.1-.36-.15-.11-.07-.24-.1-.36-.15-.11-.07-.24-.1-.36-.15-.11-.07-.24-.1-.36-.15-.11-.07-.24-.1-.36-.15-.11-.07-.24-.1-.37-.15-.11-.07-.25-.1-.37-.15-.25-.16-.53-.27-.83-.33-.12-.05-.23-.12-.37-.14-.12-.05-.24-.12-.37-.14-.13-.05-.24-.12-.37-.14-.13-.05-.24-.12-.37-.14-.13-.05-.24-.12-.38-.14-.13-.05-.24-.12-.38-.14-.13-.05-.24-.12-.38-.14-.13-.05-.24-.11-.38-.14-1.56,1-3.01,1.94-4.33,2.8.06.03.12.06.19.08.13.06.25.13.39.16.13.05.25.13.39.16.13.05.25.13.39.16.13.05.25.13.39.16.11.07.24.1.36.15.11.07.25.1.38.16.11.07.25.1.38.16.11.07.25.11.37.16.11.07.25.11.37.16.11.07.25.11.37.16.11.07.24.11.37.16.11.07.24.11.37.16.11.07.24.11.36.16.11.07.24.11.36.16.11.07.24.11.36.16.11.07.24.11.36.16.11.07.23.11.36.16.11.07.23.11.35.16.11.07.23.11.35.16.11.07.23.11.35.16.11.07.23.11.35.16.11.07.23.11.34.16.11.07.23.11.34.16.11.07.22.11.34.16.11.07.22.11.34.16.1.07.22.11.34.16.1.07.22.11.33.16.1.07.22.11.33.16.1.07.22.11.33.16.1.07.22.11.33.16.1.07.21.11.33.16.1.07.21.11.32.16.1.07.21.11.32.16.1.07.21.11.32.16.1.07.21.11.32.16.1.07.21.11.32.16.1.07.2.11.31.16.1.06.2.11.31.16.1.06.2.11.31.16.1.06.2.11.31.16.1.06.2.11.3.16.08.05.16.1.25.15.11.08.23.14.36.2.09.06.19.11.29.16.09.06.19.11.29.16.09.06.19.11.29.16.09.06.19.11.29.16.09.06.19.11.28.16.09.06.18.11.28.16.09.06.18.11.28.16.09.06.18.11.28.16.09.06.18.11.28.16.09.06.18.11.27.16.09.06.18.11.27.16.09.06.17.11.27.16.09.06.17.11.27.16.09.06.17.11.26.16.09.06.17.11.26.16.09.06.17.11.26.16.08.06.17.11.26.16.08.06.17.11.26.16.08.06.16.11.25.16.08.06.16.11.25.16.08.06.16.11.25.16.08.05.16.11.24.16.02.01.03.02.05.03.05.04.11.07.16.11.01,0,.02.02.03.02.01.01.03.02.05.03.07.06.16.11.24.16.07.06.15.11.23.16.07.06.15.11.23.16.07.06.15.11.23.16.07.06.15.11.23.16.07.06.15.11.22.16.07.06.15.11.22.16.07.06.14.11.22.16.07.06.14.11.22.16.07.06.14.11.21.16.07.06.14.11.21.16.07.06.14.11.21.16.07.06.14.11.21.16.07.06.13.11.2.16.06.06.13.11.2.16.06.06.13.11.2.16.06.05.13.11.2.16.06.05.13.11.19.16.06.05.12.11.19.16.06.05.12.11.19.16.06.05.12.11.19.16.06.05.12.11.18.16.06.05.12.11.18.16.06.05.11.11.18.15.06.05.11.11.18.16.06.05.11.11.17.15.06.05.11.11.17.15.03.02.05.05.08.07.05.05.11.1.16.15.05.05.11.1.16.15.05.05.1.1.15.15.05.05.1.1.15.15.05.05.1.1.15.15.05.05.1.1.15.15.05.05.1.1.14.15.04.05.09.1.14.15.04.05.09.1.14.15.04.05.09.1.14.15.04.05.09.1.13.15.04.05.08.1.13.15.04.05.08.1.13.15.04.05.08.1.13.15.04.05.08.1.12.15.04.05.08.1.12.15.04.05.07.1.12.15.04.05.07.1.11.15.02.03.04.06.07.09.03.05.07.09.1.14.03.05.07.09.1.14.03.05.06.09.1.14.03.05.06.09.09.14.03.05.06.09.09.14.03.05.06.09.09.14.03.05.06.09.08.14.03.05.05.09.08.14.03.05.05.09.08.14.03.05.05.09.08.14.03.04.05.09.07.14.02.04.04.09.06.12.01.03.03.06.05.1,0,0,0,.02,0,.03.01.04.03.07.05.1,0,.01,0,.03.01.04.01.03.03.06.04.09,0,.02,0,.04.01.05,0,.03.03.05.04.08,0,.02,0,.04.02.07s.02.04.03.06c0,.03.01.05.02.08,0,.02.02.03.02.05.01.03.01.06.02.09,0,.01.01.02.02.04.01.03.01.07.03.1,0,0,0,0,0,.01,0,.04.02.08.02.11,0,.04.01.08.02.12,0,.04.01.08.02.12,0,.04,0,.08.02.12h0s-.04.06-.06.09c-.02.03-.05.06-.07.09-.02.02-.04.04-.06.07-.03.03-.06.07-.09.1-.04.04-.07.07-.11.11-.04.04-.08.08-.12.11-.04.04-.08.08-.12.11-.04.04-.09.08-.13.12-.04.04-.09.08-.14.12,0,0-.02.01-.03.02-.06.04-.11.08-.16.13-.06.04-.12.09-.18.13-.06.04-.12.09-.19.13-.07.04-.13.08-.19.13-.07.04-.14.08-.2.13-.07.04-.14.08-.21.13-.07.04-.15.08-.22.13-.08.04-.16.08-.23.13-.02,0-.04.02-.05.03,0,0,0,0,0,0-.09.04-.17.09-.25.13-.01,0-.03,0-.04.01-.08.03-.15.08-.23.12-.02,0-.05.01-.07.02-.08.03-.14.08-.22.11-.03.01-.07.02-.1.03-.07.03-.13.07-.2.1-.04.02-.09.02-.13.04-.06.03-.12.07-.18.09-.05.02-.11.03-.16.05-.06.02-.1.06-.16.08-.07.02-.13.03-.2.06-.05.02-.09.05-.13.07-.08.03-.16.04-.23.07-.04.02-.07.04-.11.06-.09.03-.18.04-.27.08-.03.01-.06.03-.09.05-.1.03-.2.05-.3.09-.02,0-.04.02-.06.03-.11.04-.23.06-.34.1-.01,0-.02.01-.04.02-.13.04-.26.06-.38.12,0,0,0,0-.01,0-.01,0-.02,0-.04.01-.14.03-.29.08-.43.13-.15.03-.29.08-.44.12-.15.03-.3.08-.46.12-.16.03-.31.07-.47.12-.16.03-.32.07-.48.12-.17.03-.33.07-.5.11-.17.03-.34.06-.51.11-.18.02-.35.06-.53.11-.18.02-.36.06-.54.1-.19.02-.37.05-.56.1-.19.02-.38.05-.57.1-.2.02-.39.05-.59.09-.2.02-.4.04-.6.09-.21.02-.41.04-.62.09-.21.02-.42.03-.64.08-.22.01-.43.03-.65.08-.18,0-.36.03-.54.06-.23,0-.47.04-.7.08-.24,0-.48.03-.72.07-.24,0-.49.03-.74.07-.25,0-.5.02-.75.06-.21,0-.41.01-.62.04-.11,0-.21,0-.31,0-.08,0-.17,0-.25,0-.08,0-.17,0-.25,0-.08,0-.17,0-.25,0-.09,0-.17,0-.26,0-.09,0-.17,0-.26,0-.09,0-.17,0-.26,0-.09,0-.17,0-.26,0-.09,0-.17,0-.26,0-.09,0-.17,0-.26,0-.09,0-.17,0-.26,0-.09,0-.17,0-.26,0-.09,0-.17,0-.26,0-.09,0-.17,0-.26,0-.09,0-.17,0-.26,0-.09,0-.17,0-.26,0-.09,0-.17,0-.26,0-.09,0-.17,0-.26,0-.09,0-.17,0-.26,0-.09,0-.17,0-.26,0-.09,0-.17,0-.26,0-.09,0-.17,0-.26,0-.09,0-.17,0-.26,0-.09,0-.18,0-.26,0-.09,0-.18,0-.26,0-.09,0-.18,0-.26,0-.09,0-.18,0-.26,0-.09,0-.18,0-.27,0-.09,0-.18,0-.27,0-.09,0-.18,0-.27,0-.09,0-.18-.01-.27,0-.09,0-.18-.01-.27,0-.09,0-.18-.01-.27,0-.09,0-.18-.01-.27,0-.09,0-.18-.01-.27,0-.09,0-.18-.01-.27,0-.09,0-.18-.01-.27,0-.09,0-.18-.01-.27-.01-.09,0-.18-.01-.27-.01-.09,0-.18-.01-.27-.01-.09,0-.18-.02-.27-.01-.09,0-.18-.02-.27-.01-.09,0-.18-.02-.27-.01-.09,0-.18-.02-.27-.01-.09,0-.18-.02-.27-.01-.09,0-.18-.02-.27-.01-.09,0-.18-.02-.27-.01-.05,0-.11,0-.17,0-.09-.01-.18,0-.27-.02-.09-.01-.18,0-.27-.02-.09-.01-.18,0-.27-.02-.09-.01-.18,0-.27-.02-.09-.01-.18,0-.28-.02-.09-.01-.18,0-.28-.02-.09-.01-.18-.01-.28-.02-.09-.01-.18-.01-.28-.02-.09-.01-.19-.01-.28-.02-.09-.01-.19-.01-.28-.02-.09-.01-.19-.01-.28-.02-.09-.01-.19-.01-.28-.02-.09-.01-.19-.01-.28-.02-.09-.01-.19-.01-.28-.02-.09-.01-.19-.01-.28-.02-.09-.01-.19-.01-.28-.02-.09-.01-.19-.02-.28-.02-.09-.01-.19-.02-.28-.03-.09-.01-.19-.02-.28-.03-.09-.01-.19-.02-.28-.03-.09-.01-.19-.02-.28-.03-.09-.01-.19-.02-.28-.03-.09-.01-.19-.02-.28-.03-.09-.01-.19-.02-.28-.03-.09-.02-.19-.02-.28-.03-.09-.01-.19-.02-.28-.03-.09-.02-.19-.02-.28-.03-.09-.01-.19-.02-.28-.03-.09-.02-.19-.02-.28-.03-.09-.02-.19-.02-.28-.03-.09-.02-.19-.02-.29-.03-.09-.02-.19-.02-.29-.03-.09-.02-.19-.02-.29-.03-.1-.02-.19-.02-.29-.03-.1-.02-.19-.02-.29-.03-.1-.02-.19-.02-.29-.03-.1-.02-.19-.02-.29-.03-.1-.02-.19-.02-.29-.04-.1-.02-.19-.03-.29-.04-.1-.02-.19-.03-.29-.04-.1-.02-.19-.03-.29-.04-.1-.02-.19-.03-.29-.04-.1-.02-.19-.03-.29-.04-.1-.02-.19-.03-.29-.04-.1-.02-.19-.03-.29-.04-.1-.02-.19-.03-.29-.04-.1-.02-.19-.03-.29-.04-.1-.02-.19-.03-.29-.04-.1-.02-.19-.03-.29-.04-.1-.02-.19-.03-.29-.04-.1-.02-.19-.03-.29-.04-.1-.02-.19-.03-.29-.04-.1-.02-.19-.03-.29-.04-.1-.02-.19-.03-.29-.04-.1-.02-.19-.03-.29-.04-.1-.02-.19-.03-.29-.04-.1-.02-.2-.03-.29-.04-.1-.02-.2-.03-.29-.04-.1-.02-.2-.03-.29-.04-.1-.02-.2-.03-.3-.05-.1-.02-.2-.03-.3-.05-.1-.02-.2-.03-.3-.05-.1-.02-.2-.04-.3-.05-.1-.02-.2-.04-.3-.05-.1-.02-.2-.04-.3-.05-.1-.02-.2-.04-.3-.05-.1-.02-.2-.04-.3-.05-.1-.02-.2-.04-.3-.05-.1-.02-.2-.04-.3-.05-.1-.02-.2-.04-.3-.05-.1-.02-.2-.04-.3-.05-.1-.02-.2-.04-.3-.05-.1-.02-.2-.04-.3-.05-.1-.02-.2-.04-.3-.05-.1-.02-.2-.04-.3-.05-.1-.02-.2-.04-.3-.05-.1-.02-.2-.04-.3-.05-.1-.02-.2-.04-.3-.05-.1-.02-.2-.04-.3-.05-.1-.02-.2-.04-.3-.05-.1-.02-.2-.04-.3-.06-.1-.02-.2-.04-.3-.06-.1-.02-.2-.04-.3-.06-.1-.02-.2-.04-.3-.06-.1-.02-.2-.04-.3-.06-.1-.02-.2-.04-.3-.06-.1-.02-.2-.05-.3-.06-.1-.02-.2-.05-.3-.06-.1-.02-.2-.05-.3-.06-.1-.02-.2-.05-.3-.06-.1-.02-.2-.05-.3-.06-.1-.02-.2-.05-.3-.06-.1-.02-.2-.05-.3-.06-.1-.02-.2-.05-.3-.06-.1-.02-.2-.05-.31-.06-.1-.02-.2-.05-.31-.06-.1-.02-.2-.05-.31-.06-.1-.02-.2-.05-.31-.06-.1-.02-.2-.05-.31-.06-.1-.02-.2-.05-.31-.06-.1-.02-.2-.05-.31-.06-.1-.02-.2-.05-.31-.06-.1-.02-.2-.05-.31-.06-.1-.02-.2-.05-.31-.06-.1-.02-.2-.05-.31-.07-.1-.02-.2-.05-.31-.07-.1-.02-.2-.05-.31-.07-.04-.01-.09-.02-.14-.03-.1-.03-.21-.04-.31-.07-.1-.03-.21-.04-.31-.07-.1-.03-.21-.04-.31-.07-.1-.03-.21-.04-.31-.07-.1-.03-.21-.04-.31-.07-.1-.03-.21-.04-.31-.07-.1-.03-.21-.04-.31-.07-.1-.03-.21-.04-.31-.07-.1-.03-.21-.04-.31-.07-.1-.03-.21-.04-.31-.07-.1-.03-.21-.04-.31-.07-.1-.03-.21-.04-.31-.07-.1-.03-.21-.05-.31-.07-.1-.03-.21-.05-.31-.07-.1-.03-.21-.05-.31-.07-.1-.03-.21-.05-.31-.07-.1-.03-.21-.05-.31-.07-.1-.03-.21-.05-.31-.07-.1-.03-.21-.05-.31-.07-.1-.03-.21-.05-.31-.07-.1-.03-.21-.05-.31-.07-.1-.03-.21-.05-.31-.08-.1-.03-.21-.05-.31-.08-.1-.03-.21-.05-.31-.08-.1-.03-.21-.05-.31-.08-.1-.03-.21-.05-.31-.08-.1-.03-.21-.05-.31-.08-.1-.03-.21-.05-.31-.08-.1-.03-.21-.05-.31-.08-.1-.03-.21-.05-.31-.08-.1-.03-.21-.05-.31-.08-.1-.03-.21-.05-.31-.08-.1-.03-.21-.05-.32-.08-.1-.03-.21-.05-.31-.08-.1-.03-.21-.05-.32-.08-.1-.03-.21-.05-.32-.08-.1-.03-.21-.05-.32-.08-.1-.03-.21-.05-.32-.08-.1-.03-.21-.05-.32-.08-.1-.03-.21-.05-.32-.08-.1-.03-.21-.05-.32-.08-.1-.03-.21-.05-.32-.08-.1-.03-.21-.06-.32-.08-.1-.03-.21-.06-.32-.08-.1-.03-.21-.06-.32-.08-.1-.03-.21-.06-.32-.08-.1-.03-.21-.06-.32-.09-.1-.03-.21-.06-.32-.09-.1-.03-.21-.06-.32-.09-.1-.03-.21-.06-.32-.09-.11-.03-.21-.06-.32-.09-.11-.03-.21-.06-.32-.09-.11-.03-.21-.06-.32-.09-.11-.03-.21-.06-.32-.09-.11-.03-.21-.06-.32-.09-.11-.03-.21-.06-.32-.09-.11-.03-.21-.06-.32-.09-.11-.03-.21-.06-.32-.09-.11-.03-.21-.06-.32-.09-.11-.03-.21-.06-.32-.09-.11-.03-.21-.06-.32-.09-.11-.03-.21-.06-.32-.09-.11-.03-.21-.06-.32-.09-.11-.03-.21-.06-.32-.09-.11-.03-.21-.06-.32-.09-.11-.03-.21-.06-.32-.09-.11-.03-.21-.06-.32-.09-.11-.03-.21-.06-.32-.09-.11-.03-.21-.06-.32-.09-.11-.03-.21-.06-.32-.09-.11-.03-.21-.06-.32-.09-.11-.03-.21-.06-.32-.09-.11-.03-.21-.07-.32-.09-.11-.03-.21-.07-.32-.09-.11-.03-.21-.07-.32-.09-.11-.03-.21-.07-.32-.1-.11-.03-.21-.07-.32-.1-.11-.03-.21-.07-.32-.1-.11-.03-.21-.07-.32-.1-.11-.03-.21-.07-.32-.1-.11-.03-.21-.07-.32-.1-.11-.03-.21-.07-.32-.1-.11-.03-.21-.07-.32-.1-.11-.03-.21-.07-.32-.1-.11-.03-.21-.07-.32-.1-.11-.03-.21-.07-.32-.1-.11-.03-.21-.07-.32-.1-.11-.03-.21-.07-.32-.1-.11-.04-.21-.07-.32-.1-.11-.03-.21-.07-.32-.1-.11-.04-.21-.07-.32-.1-.11-.03-.21-.07-.32-.1-.11-.04-.21-.07-.32-.1-.11-.04-.21-.07-.32-.1-.11-.04-.21-.07-.32-.1-.11-.04-.21-.07-.32-.1-.11-.04-.21-.07-.32-.1-.11-.04-.21-.07-.32-.1-.11-.04-.21-.07-.32-.1-.11-.04-.21-.07-.32-.1-.11-.04-.21-.07-.32-.1-.11-.04-.21-.07-.32-.1-.11-.04-.21-.07-.32-.1-.11-.04-.21-.07-.32-.1-.11-.04-.21-.07-.32-.1-.11-.04-.21-.08-.32-.11-.11-.04-.21-.08-.32-.11-.11-.04-.21-.08-.32-.11-.11-.04-.21-.08-.32-.11-.11-.04-.21-.08-.32-.11-.11-.04-.21-.08-.32-.11-.11-.04-.21-.08-.33-.11-.11-.04-.21-.08-.32-.11-.11-.04-.21-.08-.33-.11-.11-.04-.21-.08-.32-.11-.11-.04-.21-.08-.33-.11-.11-.04-.21-.08-.32-.11-.11-.04-.21-.08-.33-.11-.11-.04-.21-.08-.33-.11-.11-.04-.21-.08-.32-.11-.11-.04-.21-.08-.33-.11-.11-.04-.21-.08-.32-.11-.11-.04-.21-.08-.33-.11-.11-.04-.21-.08-.33-.11-.11-.04-.21-.08-.32-.11-.11-.04-.21-.08-.33-.11-.11-.04-.21-.08-.32-.11-.11-.04-.21-.08-.33-.11-.11-.04-.21-.08-.33-.11-.11-.04-.21-.08-.32-.11-.11-.04-.21-.08-.33-.11-.11-.04-.21-.08-.33-.11-.11-.04-.21-.08-.33-.11-.11-.04-.21-.08-.33-.11-.11-.04-.21-.08-.33-.11-.11-.04-.21-.08-.33-.11-.11-.04-.21-.08-.33-.11-.11-.04-.21-.08-.33-.11-.11-.04-.21-.08-.33-.12-.11-.04-.21-.08-.33-.12-.11-.04-.21-.08-.33-.12-.11-.04-.21-.09-.33-.12-.11-.04-.21-.09-.33-.12-.11-.04-.21-.09-.33-.12-.11-.04-.21-.09-.33-.12-.11-.04-.21-.09-.33-.12-.11-.04-.21-.09-.33-.12-.11-.04-.21-.09-.33-.12-.11-.04-.21-.09-.33-.12-.11-.04-.21-.09-.33-.12-.11-.04-.21-.09-.33-.12-.11-.04-.21-.09-.33-.12-.11-.04-.21-.09-.33-.12-.11-.04-.21-.09-.33-.12-.11-.04-.21-.09-.33-.12-.11-.04-.21-.09-.33-.12-.11-.04-.21-.09-.33-.12-.11-.04-.21-.09-.33-.12-.11-.04-.21-.09-.33-.12-.11-.04-.21-.09-.33-.12-.11-.04-.21-.09-.33-.12-.11-.04-.21-.09-.33-.12-.11-.04-.21-.09-.33-.12-.11-.04-.21-.09-.33-.12-.11-.04-.21-.09-.33-.12-.11-.04-.21-.09-.33-.12-.11-.04-.21-.09-.33-.12-.11-.04-.21-.09-.33-.12-.11-.04-.21-.09-.33-.12-.11-.04-.21-.09-.33-.12-.11-.04-.21-.09-.33-.12-.11-.04-.21-.09-.33-.12-.11-.04-.21-.09-.33-.12-.11-.04-.21-.09-.33-.12-.11-.04-.21-.09-.33-.12-.05-.03-.11-.04-.17-.06-.04-.01-.07-.03-.11-.04-.1-.05-.22-.08-.32-.12-.1-.05-.22-.08-.32-.13-.1-.05-.22-.08-.32-.13-.1-.05-.22-.08-.32-.13-.1-.05-.22-.08-.32-.13-.1-.05-.22-.08-.32-.13-.1-.05-.22-.08-.32-.13-.1-.05-.22-.08-.32-.13-.1-.05-.22-.08-.32-.13-.1-.05-.22-.08-.32-.13-.1-.05-.22-.08-.32-.13-.1-.05-.22-.08-.32-.13-.1-.05-.22-.08-.32-.13-.1-.05-.22-.08-.32-.13-.1-.05-.22-.08-.32-.13-.1-.05-.22-.08-.32-.13-.1-.05-.22-.08-.32-.13-.1-.05-.22-.08-.32-.13-.1-.05-.22-.08-.32-.13-.1-.05-.22-.08-.32-.13-.1-.05-.22-.08-.32-.13-.1-.05-.22-.08-.32-.13-.1-.05-.22-.08-.32-.13-.1-.05-.22-.08-.32-.13-.1-.05-.22-.08-.32-.13-.1-.05-.22-.08-.32-.13-.1-.05-.22-.08-.32-.13-.1-.05-.22-.08-.32-.13-.1-.05-.22-.08-.32-.13-.1-.05-.22-.08-.32-.13-.1-.05-.22-.08-.32-.13-.1-.05-.22-.08-.32-.13-.1-.05-.22-.09-.32-.13-.1-.05-.22-.09-.32-.13-.1-.05-.22-.09-.32-.13-.1-.05-.22-.09-.32-.13-.1-.05-.22-.09-.32-.13-.1-.05-.22-.09-.32-.13-.1-.05-.21-.09-.32-.13-.1-.05-.22-.09-.32-.13-.1-.05-.21-.09-.32-.13-.1-.05-.22-.09-.32-.13-.1-.05-.21-.09-.32-.13-.1-.05-.21-.09-.32-.13-.1-.05-.21-.09-.32-.13-.1-.05-.21-.09-.32-.14-.1-.05-.21-.09-.32-.14-.1-.05-.21-.09-.32-.14-.1-.05-.21-.09-.32-.14-.1-.05-.21-.09-.32-.14-.1-.05-.21-.09-.32-.14-.1-.05-.21-.09-.32-.14-.1-.05-.21-.09-.32-.14-.1-.05-.21-.09-.32-.14-.1-.05-.21-.09-.32-.14-.1-.05-.21-.09-.32-.14-.1-.05-.21-.09-.32-.14-.1-.05-.21-.09-.32-.14-.1-.05-.21-.09-.32-.14-.1-.05-.21-.09-.32-.14-.1-.05-.21-.09-.32-.14-.1-.05-.21-.09-.32-.14-.1-.05-.21-.09-.32-.14-2.37-1.19-5.27-1.21-7.73.22-3.9,2.25-5.24,7.24-2.98,11.14,1.13,1.95,2.94,3.26,4.95,3.8.11.03.21.09.33.12.11.03.21.09.33.12.11.03.21.09.33.12.11.03.21.09.33.12.11.03.21.09.33.12.11.03.21.09.33.12.11.03.21.09.33.12.11.03.22.09.33.12.11.03.21.09.33.12.11.03.21.09.33.12.11.03.22.09.33.12.11.03.21.09.33.12.11.03.22.09.33.12.11.03.22.09.33.12.11.03.22.09.33.12.11.03.22.09.33.12.11.03.21.09.33.12.11.03.22.09.33.12.11.03.22.09.33.12.11.03.22.09.33.12.11.03.22.09.33.12.11.03.22.09.33.12.11.03.22.09.33.12.11.03.22.09.33.12.11.03.22.09.33.12.11.03.22.09.33.12.11.03.22.09.33.12.11.03.22.09.33.12.11.03.22.09.33.12.11.03.22.08.33.11.11.03.22.08.33.11.11.03.22.08.33.11.11.04.22.08.33.11.11.03.22.08.33.11.11.03.22.08.33.11.11.03.22.08.33.11.11.03.22.08.33.11.11.03.22.08.33.11.11.03.22.08.33.11.11.03.22.08.33.11.11.03.22.08.33.11.11.03.22.08.33.11.11.03.22.08.33.11.11.03.22.08.33.11.11.03.22.08.33.11.11.03.22.08.33.11.11.03.22.08.33.11.11.03.22.08.33.11.11.03.22.08.33.11.11.03.22.08.33.11.11.04.22.08.33.11.11.03.22.08.33.11.11.03.22.08.33.11.11.03.22.08.33.11.11.03.22.08.33.11.11.03.22.08.33.11.11.03.22.08.33.11.11.03.22.08.33.11.11.03.22.08.33.11.11.04.22.08.33.11.11.03.22.08.33.11.11.04.22.08.33.11.11.03.22.08.33.11.11.03.22.08.33.11.11.03.22.08.33.11.11.03.22.08.33.11.11.03.22.08.33.11.11.03.22.08.33.11.11.03.22.08.33.11.11.03.22.08.33.11.11.03.22.08.33.11.11.03.22.08.33.11.11.03.22.08.33.11.11.03.22.08.33.1.11.03.22.07.33.1.11.03.22.07.33.1.11.03.22.07.33.1.11.03.22.07.33.1.11.03.22.07.33.1.11.03.22.07.33.1.11.03.22.07.33.1.11.03.22.07.33.1.11.03.22.07.33.1.11.03.22.07.33.1.11.03.22.07.33.1.11.03.22.07.33.1.11.03.22.07.33.1.11.03.22.07.33.1.11.03.22.07.33.1.11.03.22.07.33.1.11.03.22.07.33.1.11.03.22.07.33.1.11.03.22.07.33.1.11.03.22.07.33.1.11.03.22.07.33.1.11.03.22.07.33.1.11.03.22.07.33.1.11.03.22.07.33.1.11.03.22.07.33.1.11.03.22.07.33.1.11.03.22.07.33.1.11.03.22.07.33.1.11.03.22.07.33.1.11.03.22.07.33.1.11.03.22.07.33.1.11.03.22.07.33.1.11.03.22.07.33.1.11.03.22.07.33.1.11.03.22.07.33.1.11.03.22.07.33.09.11.03.22.07.33.09.11.03.22.07.33.09.11.03.22.06.33.09.11.03.22.07.33.09.11.03.22.06.33.09.11.03.22.06.33.09.11.03.22.06.33.09.11.03.22.06.33.09.11.03.22.06.33.09.11.03.22.06.33.09.11.03.22.06.33.09.11.03.22.06.33.09.11.03.22.06.33.09.11.03.22.06.33.09.11.03.22.06.33.09.11.03.22.06.33.09.11.03.22.06.33.09.11.03.22.06.33.09.11.03.22.06.33.09.11.03.22.06.33.09.11.03.22.06.33.09.11.03.22.06.33.09.11.03.22.06.33.09.11.03.22.06.33.09.11.03.22.06.33.09.11.03.22.06.33.09.11.03.22.06.33.09.11.03.22.06.33.09.11.03.22.06.33.09.11.03.22.06.33.09.11.03.22.06.33.09.11.03.22.06.33.09.11.03.22.06.33.09.11.03.22.06.33.08.11.03.22.06.33.08.11.03.22.06.33.08.11.03.22.06.33.08.11.03.22.06.33.08.11.03.22.05.33.08.11.03.22.05.33.08.11.03.22.05.33.08.11.03.22.05.33.08.11.03.22.05.33.08.11.03.22.05.33.08.11.03.22.05.33.08.11.03.22.05.33.08.11.03.22.05.33.08.11.03.22.05.33.08.11.03.22.05.33.08.11.03.22.05.33.08.11.03.22.05.33.08.11.03.22.05.33.08.11.03.22.05.33.08.11.03.22.05.33.08.11.03.22.05.33.08.11.03.22.05.33.08.11.03.22.05.33.08.11.03.22.05.33.08.11.03.22.05.33.08.11.03.22.05.33.08.11.03.22.05.33.08.11.03.22.05.33.08.11.03.22.05.33.08.11.03.22.05.33.07.11.03.22.05.33.07.11.03.22.05.33.07.11.03.22.05.33.07.11.03.22.05.33.07.11.03.22.05.33.07.11.03.22.05.32.07.11.03.22.05.33.07.11.03.22.04.32.07.11.03.22.04.33.07.11.03.22.04.33.07.11.03.22.04.33.07.11.03.22.04.32.07.11.03.22.04.32.07.11.03.22.04.32.07.11.03.22.04.32.07.11.03.22.04.32.07.11.03.22.04.32.07.11.03.22.04.32.07.11.03.22.04.32.07.11.03.22.04.32.07.11.03.22.04.32.07.11.03.22.04.32.07.11.03.22.04.32.07.11.03.22.04.32.07.38.12.78.2,1.18.24.11.02.21.05.32.07.11.02.21.05.32.06.11.02.21.05.32.06.11.02.21.05.32.06.11.02.21.05.32.06.11.02.21.05.32.06.11.02.21.05.32.06.11.02.21.05.32.06.11.02.21.05.32.06.11.02.21.05.32.06.11.02.21.05.32.06.11.02.21.05.32.06.11.02.21.05.32.06.11.02.21.05.32.06.11.02.21.05.32.06.11.02.21.05.32.06.11.02.21.05.32.06.11.02.21.05.32.06.11.02.21.05.32.06.11.02.21.05.32.06.11.02.21.05.32.06.11.02.21.05.32.06.11.02.21.05.32.06.11.02.21.05.32.06.11.02.21.04.32.06.11.02.21.04.32.06.11.02.21.04.32.06.11.02.21.04.32.05.11.02.21.04.32.05.11.02.21.04.31.05.11.02.21.04.32.05.11.02.21.04.32.05.11.02.21.04.31.05.11.02.21.04.32.05.11.02.21.04.31.05.11.02.21.04.31.05.11.02.21.04.31.05.1.02.21.04.31.05.1.02.21.04.31.05.11.02.21.04.31.05.1.02.21.04.31.05.1.02.21.04.31.05.1.02.21.04.31.05.1.02.21.04.31.05.1.02.21.04.31.05.1.02.21.04.31.05.1.02.21.04.31.05.1.02.21.04.31.05.1.02.21.04.31.05.1.02.21.04.31.05.1.02.21.03.31.05.1.02.21.03.31.04.1.02.21.03.31.04.1.02.21.03.31.04.1.02.21.03.31.04.1.02.21.03.31.04.1.02.2.03.31.04.1.02.21.03.31.04.1.02.21.03.31.04.1.02.2.03.31.04.1.02.21.03.31.04.1.02.2.03.31.04.1.02.2.03.31.04.1.02.2.03.31.04.1.02.2.03.31.04.1.02.2.03.31.04.1.02.2.03.31.04.1.02.2.03.31.04.1.02.2.03.31.04.1.02.2.03.31.04.1.02.2.03.31.04.1.02.2.03.31.04.1.02.2.03.31.04.1.02.2.03.31.04.1.02.2.03.3.03.1.02.2.02.3.03.1.02.2.02.31.03.1.02.2.02.3.03.1.01.2.02.3.03.1.02.2.02.3.03.1.01.2.02.3.03.1.02.2.02.3.03.1.01.2.02.3.03.1.01.2.02.3.03.1.01.2.02.3.03.1.01.2.02.3.03.1.01.2.02.3.03.1.01.2.02.3.03.1.01.2.02.3.03.1.01.2.02.3.03.1.01.2.02.3.03.1.01.2.02.3.03.1.01.2.02.3.03.1.01.2.02.3.03.1.01.2.02.3.03.1.01.2.02.3.03.1.01.2.02.3.03.1.01.2.02.3.02.1.01.2.02.3.02.1.01.2.01.3.02.1.01.2.01.3.02.1.01.2.01.3.02.1.01.2.01.3.02.1.01.2.01.3.02.1.01.2.01.3.02.1.01.2.01.29.02.1.01.2.01.29.02.1.01.2.01.29.02.1.01.2.01.29.02.1.01.2.01.29.02.1.01.2,0,.29.02.1.01.2,0,.29.02.1.01.2,0,.29.02.1.01.2,0,.29.02.1.01.2,0,.29.02.1.01.2,0,.29.02.1.01.2,0,.29.02.1.01.19,0,.29.02.1.01.19,0,.29.01.1.01.19,0,.29.01.1.01.19,0,.29.01.18.03.37.02.56.03.24.02.48.04.73.03.1,0,.19.02.29.01.1,0,.19.02.29.01.1,0,.19.02.29.01.1,0,.19.02.29.01.1,0,.19.02.29.01.1,0,.19.01.29,0,.1,0,.19.01.29,0,.1,0,.19.01.29,0,.1,0,.19.01.28,0,.1,0,.19.01.28,0,.09,0,.19.01.28,0,.1,0,.19.01.28,0,.09,0,.19.01.28,0,.09,0,.19.01.28,0,.09,0,.19.01.28,0,.09,0,.19,0,.28,0,.09,0,.19,0,.28,0,.09,0,.19,0,.28,0,.09,0,.19,0,.28,0,.09,0,.19,0,.28,0,.09,0,.19,0,.28,0,.09,0,.19,0,.28,0,.09,0,.19,0,.28,0,.09,0,.19,0,.28,0,.09,0,.19,0,.28,0,.09,0,.19,0,.28,0,.09,0,.18,0,.28,0,.09,0,.19,0,.28,0,.09,0,.18,0,.28,0,.09,0,.18,0,.28,0,.09,0,.18,0,.28,0,.09,0,.18,0,.28,0,.09,0,.18,0,.28,0,.09,0,.18,0,.28,0,.09,0,.18,0,.27,0,.09,0,.18,0,.27,0,.09,0,.18,0,.27,0,.09,0,.18,0,.27,0,.09,0,.18,0,.27,0,.09,0,.18,0,.27,0,.09,0,.18,0,.27,0,.09,0,.18,0,.27,0,.09,0,.18,0,.27,0,.09,0,.18,0,.27,0,.09,0,.18,0,.27,0,.09,0,.18,0,.27-.01.09,0,.18,0,.27-.01.09,0,.18,0,.27-.01.09,0,.18,0,.27-.01.09,0,.18,0,.27-.01.09,0,.18,0,.27-.01.09,0,.18,0,.27-.01.09,0,.18,0,.27-.01.09,0,.18,0,.27-.01.09,0,.18,0,.27-.02.09,0,.18,0,.27-.02.09,0,.18-.01.27-.02.09,0,.18-.01.27-.02.09,0,.18-.01.26-.02.09,0,.18-.01.26-.02.09,0,.18-.01.26-.02.09,0,.18-.01.26-.02.09,0,.18-.01.26-.02.09,0,.17-.01.26-.02.09,0,.17-.01.26-.02.09,0,.17-.02.26-.02.09,0,.17-.02.26-.02.09,0,.17-.02.26-.02.09,0,.17-.02.26-.02.09,0,.17-.02.26-.02.09,0,.17-.02.26-.02.09,0,.17-.02.26-.02.09,0,.17-.02.26-.02.09,0,.17-.02.26-.03.09,0,.17-.02.26-.03.09,0,.17-.02.26-.03.09,0,.17-.02.26-.03.09,0,.17-.02.26-.03.08,0,.17-.02.26-.03.19,0,.37-.04.56-.06.26,0,.53-.03.79-.08.27,0,.54-.03.81-.08.3,0,.59-.04.89-.1.26-.01.52-.04.78-.1.25-.01.51-.04.76-.1.25-.02.5-.05.74-.11.24-.02.48-.05.73-.11.24-.02.47-.05.71-.11.23-.02.46-.06.69-.12.22-.02.45-.06.67-.12.22-.03.43-.07.65-.13.21-.03.42-.07.63-.13.21-.03.41-.07.62-.13.2-.03.4-.08.6-.13.2-.03.39-.08.58-.14.19-.03.38-.08.57-.14.18-.03.37-.09.55-.14.18-.03.36-.09.53-.14.17-.03.34-.09.52-.15.28-.06.56-.14.84-.25,0,0,0,0,0,0,.15-.04.31-.08.46-.14.01,0,.02-.01.04-.02.14-.04.28-.07.41-.13.02,0,.04-.03.07-.04.12-.04.25-.06.37-.11.03-.01.06-.04.09-.05.11-.04.22-.06.33-.1.04-.02.08-.05.12-.06.1-.03.19-.05.29-.09.05-.02.1-.05.15-.08.08-.03.17-.04.25-.08.06-.03.11-.06.17-.09.07-.02.14-.03.21-.06.07-.03.13-.07.19-.1.06-.02.12-.03.17-.05.08-.03.14-.08.22-.12.05-.02.09-.02.14-.04.09-.04.16-.09.24-.13.03-.01.07-.02.1-.03.09-.04.17-.09.26-.14.02,0,.05-.01.07-.02.1-.04.18-.1.28-.15.01,0,.03,0,.04-.01.11-.04.2-.11.3-.16,0,0,0,0,0,0,.27-.11.52-.25.75-.4.11-.06.22-.11.31-.18.1-.06.21-.11.3-.18.1-.06.2-.11.29-.18.09-.06.19-.11.28-.17.09-.06.18-.11.27-.17.09-.05.17-.11.25-.17.09-.05.16-.11.24-.17.08-.05.15-.11.23-.17.08-.05.15-.11.22-.17.23-.15.44-.32.63-.5.07-.06.14-.11.2-.17.06-.06.13-.11.19-.17.06-.06.12-.11.18-.17.06-.05.12-.11.17-.16.06-.05.11-.11.16-.16.05-.05.1-.1.15-.16.05-.05.1-.1.14-.15.07-.07.13-.15.2-.22.16-.16.31-.33.43-.51.04-.05.08-.1.12-.15.04-.05.08-.1.11-.15.03-.05.07-.09.1-.14.03-.05.06-.09.1-.14.03-.04.06-.09.09-.13.03-.04.05-.09.08-.13.14-.2.27-.42.37-.64.02-.04.05-.08.07-.12.02-.04.04-.08.06-.12.02-.04.04-.08.06-.11.02-.04.03-.07.05-.11.02-.03.03-.07.04-.1.01-.03.02-.07.04-.1.09-.2.16-.41.21-.62.01-.05.04-.1.05-.15,0-.03.02-.06.02-.08,0-.03.01-.05.02-.08,0-.02.01-.05.02-.07,0-.02,0-.04.01-.06.06-.23.09-.46.1-.7,0-.02,0-.04,0-.05,0-.02,0-.03,0-.05,0-.01,0-.03,0-.04,0-.23,0-.47-.04-.71Z"/>
  </g>
  <g>
    <path class="cls-1" d="m209.06,119.47v2.62h-13.79v-21.11h13.41v2.62h-10.69v6.48h9.53v2.56h-9.53v6.82h11.07Z"/>
    <path class="cls-1" d="m225.49,99.72v22.37h-2.5v-2.53c-.58.88-1.31,1.56-2.2,2.02-.89.46-1.86.69-2.93.69-1.39,0-2.64-.34-3.75-1.03-1.1-.68-1.97-1.64-2.59-2.88-.62-1.24-.94-2.66-.94-4.27s.31-3.03.94-4.25c.62-1.23,1.49-2.18,2.59-2.87,1.1-.68,2.35-1.02,3.75-1.02,1.03,0,1.98.22,2.85.65s1.59,1.07,2.17,1.91v-8.8h2.6Zm-4.94,19.31c.74-.47,1.32-1.14,1.74-1.99.42-.85.62-1.83.62-2.94s-.21-2.09-.62-2.94c-.42-.85-1-1.51-1.74-1.98s-1.57-.69-2.47-.69-1.75.23-2.48.69-1.31,1.12-1.74,1.98-.64,1.83-.64,2.94.21,2.09.64,2.94,1,1.52,1.74,1.99c.73.47,1.56.71,2.48.71s1.73-.24,2.47-.71Z"/>
    <path class="cls-1" d="m242.99,106.11v15.98h-2.47v-2.41c-.53.82-1.22,1.46-2.08,1.91-.86.45-1.8.68-2.81.68-1.92,0-3.43-.59-4.53-1.76-1.1-1.18-1.66-2.91-1.66-5.2v-9.2h2.6v8.87c0,1.55.34,2.72,1,3.51.67.8,1.63,1.19,2.88,1.19,1.37,0,2.46-.46,3.26-1.39.8-.93,1.19-2.23,1.19-3.92v-8.26h2.61Z"/>
    <path class="cls-1" d="m249.71,121.22c-1.15-.7-2.05-1.67-2.7-2.91-.65-1.24-.98-2.64-.98-4.21s.33-2.97.98-4.21,1.55-2.2,2.7-2.89c1.15-.69,2.46-1.04,3.92-1.04,1.3,0,2.47.29,3.49.87,1.02.58,1.81,1.43,2.37,2.53l-1.98,1.42c-.45-.77-1.01-1.34-1.68-1.72-.67-.38-1.41-.57-2.23-.57-.94,0-1.79.23-2.54.69-.75.46-1.34,1.12-1.76,1.98s-.64,1.83-.64,2.94.21,2.12.64,2.97c.42.86,1.01,1.51,1.76,1.98.75.46,1.6.7,2.54.7.81,0,1.56-.19,2.23-.57.67-.38,1.23-.96,1.68-1.72l1.98,1.39c-.56,1.11-1.35,1.95-2.37,2.55-1.02.59-2.19.89-3.49.89-1.47,0-2.77-.35-3.92-1.06Z"/>
    <path class="cls-1" d="m272.28,107.58c1.06,1.09,1.59,2.7,1.59,4.86v9.65h-2.47v-2.11c-.43.75-1.05,1.31-1.86,1.7s-1.76.59-2.86.59c-1.61,0-2.9-.43-3.87-1.3-.97-.86-1.45-2-1.45-3.41s.46-2.54,1.38-3.39c.92-.85,2.39-1.28,4.4-1.28h4.13v-.57c0-1.25-.33-2.2-.98-2.87s-1.61-.99-2.88-.99c-.85,0-1.68.15-2.5.47s-1.5.73-2.06,1.25l-1.08-2.17c.74-.66,1.63-1.17,2.66-1.52,1.03-.35,2.13-.53,3.28-.53,1.99,0,3.51.54,4.57,1.63Zm-2.59,11.72c.72-.49,1.25-1.19,1.57-2.1v-2.23h-4.02c-2.21,0-3.31.82-3.31,2.47,0,.8.28,1.44.84,1.9.56.46,1.34.69,2.33.69s1.86-.25,2.58-.74Z"/>
    <path class="cls-1" d="m280.42,121.22c-1.15-.7-2.05-1.67-2.7-2.91-.65-1.24-.98-2.64-.98-4.21s.33-2.97.98-4.21,1.55-2.2,2.7-2.89c1.15-.69,2.46-1.04,3.92-1.04,1.3,0,2.47.29,3.49.87,1.02.58,1.81,1.43,2.37,2.53l-1.98,1.42c-.45-.77-1.01-1.34-1.68-1.72-.67-.38-1.41-.57-2.23-.57-.94,0-1.79.23-2.54.69-.75.46-1.34,1.12-1.76,1.98s-.64,1.83-.64,2.94.21,2.12.64,2.97c.42.86,1.01,1.51,1.76,1.98.75.46,1.6.7,2.54.7.81,0,1.56-.19,2.23-.57.67-.38,1.23-.96,1.68-1.72l1.98,1.39c-.56,1.11-1.35,1.95-2.37,2.55-1.02.59-2.19.89-3.49.89-1.47,0-2.77-.35-3.92-1.06Zm.23,6.96l.57-1.48c.54.34,1.16.51,1.85.51,1.01,0,1.52-.4,1.52-1.2,0-.36-.13-.65-.38-.86-.25-.21-.64-.32-1.17-.32h-.73l.68-2.95h1.49l-.41,1.72c.76.08,1.34.35,1.75.8.41.45.61,1.02.61,1.71,0,.84-.31,1.51-.92,2-.62.49-1.43.74-2.44.74-.94,0-1.75-.22-2.42-.66Z"/>
    <path class="cls-1" d="m302.99,107.58c1.06,1.09,1.59,2.7,1.59,4.86v9.65h-2.47v-2.11c-.43.75-1.05,1.31-1.86,1.7-.81.39-1.76.59-2.86.59-1.61,0-2.9-.43-3.87-1.3-.97-.86-1.45-2-1.45-3.41s.46-2.54,1.38-3.39c.92-.85,2.39-1.28,4.4-1.28h4.13v-.57c0-1.25-.33-2.2-.98-2.87s-1.61-.99-2.88-.99c-.85,0-1.68.15-2.5.47s-1.5.73-2.06,1.25l-1.08-2.17c.74-.66,1.63-1.17,2.66-1.52,1.03-.35,2.13-.53,3.28-.53,1.99,0,3.51.54,4.57,1.63Zm-3.61-4.19c-.32-.2-.71-.5-1.18-.9-.27-.28-.51-.49-.71-.62-.2-.13-.4-.2-.6-.2-.4,0-.72.17-.98.5-.25.33-.39.79-.41,1.37h-1.47c.04-1.12.29-2.02.77-2.68.48-.66,1.11-1,1.89-1,.43,0,.82.11,1.15.32.34.21.72.52,1.15.92.31.28.55.49.73.62.18.13.37.2.57.2.4,0,.72-.16.98-.48.25-.32.39-.77.41-1.33h1.47c-.04,1.08-.29,1.95-.77,2.61-.48.65-1.11.98-1.89.98-.43,0-.81-.1-1.13-.3Zm1.02,15.91c.72-.49,1.25-1.19,1.57-2.1v-2.23h-4.02c-2.21,0-3.31.82-3.31,2.47,0,.8.28,1.44.84,1.9.56.46,1.34.69,2.33.69s1.86-.25,2.58-.74Z"/>
    <path class="cls-1" d="m311.1,121.22c-1.14-.7-2.03-1.67-2.67-2.91-.64-1.24-.96-2.64-.96-4.21s.32-2.97.96-4.21,1.53-2.2,2.67-2.89c1.14-.69,2.42-1.04,3.85-1.04s2.71.35,3.84,1.04,2.02,1.66,2.66,2.89c.64,1.24.96,2.64.96,4.21s-.32,2.97-.96,4.21c-.64,1.24-1.53,2.21-2.66,2.91s-2.41,1.06-3.84,1.06-2.71-.35-3.85-1.06Zm6.34-2.19c.73-.47,1.31-1.14,1.72-1.99.42-.85.62-1.83.62-2.94s-.21-2.09-.62-2.94c-.42-.85-.99-1.51-1.72-1.98s-1.56-.69-2.48-.69-1.75.23-2.48.69-1.31,1.12-1.74,1.98c-.42.85-.64,1.83-.64,2.94s.21,2.09.64,2.94c.42.85,1,1.52,1.74,1.99.73.47,1.56.71,2.48.71s1.75-.24,2.48-.71Z"/>
    <path class="cls-1" d="m342.32,107.58c1.06,1.09,1.59,2.7,1.59,4.86v9.65h-2.47v-2.11c-.43.75-1.05,1.31-1.86,1.7s-1.76.59-2.86.59c-1.61,0-2.9-.43-3.87-1.3-.97-.86-1.45-2-1.45-3.41s.46-2.54,1.38-3.39c.92-.85,2.39-1.28,4.4-1.28h4.13v-.57c0-1.25-.33-2.2-.98-2.87s-1.61-.99-2.88-.99c-.85,0-1.68.15-2.5.47s-1.5.73-2.06,1.25l-1.08-2.17c.74-.66,1.63-1.17,2.66-1.52,1.03-.35,2.13-.53,3.28-.53,1.99,0,3.51.54,4.57,1.63Zm-2.59,11.72c.72-.49,1.25-1.19,1.57-2.1v-2.23h-4.02c-2.21,0-3.31.82-3.31,2.47,0,.8.28,1.44.84,1.9.56.46,1.34.69,2.33.69s1.86-.25,2.58-.74Z"/>
    <path class="cls-1" d="m368.79,99.72v22.37h-2.5v-2.53c-.58.88-1.31,1.56-2.2,2.02-.89.46-1.86.69-2.93.69-1.39,0-2.64-.34-3.75-1.03-1.1-.68-1.97-1.64-2.59-2.88s-.94-2.66-.94-4.27.31-3.03.94-4.25c.62-1.23,1.49-2.18,2.59-2.87,1.1-.68,2.35-1.02,3.75-1.02,1.03,0,1.98.22,2.85.65s1.59,1.07,2.17,1.91v-8.8h2.6Zm-4.94,19.31c.74-.47,1.32-1.14,1.74-1.99.42-.85.62-1.83.62-2.94s-.21-2.09-.62-2.94c-.42-.85-1-1.51-1.74-1.98s-1.57-.69-2.47-.69-1.75.23-2.48.69-1.31,1.12-1.74,1.98-.64,1.83-.64,2.94.21,2.09.64,2.94,1,1.52,1.74,1.99c.73.47,1.56.71,2.48.71s1.73-.24,2.47-.71Z"/>
    <path class="cls-1" d="m372.91,102.49c-.34-.36-.5-.8-.5-1.33s.17-.97.5-1.34c.33-.37.75-.56,1.26-.56s.93.18,1.26.53.5.79.5,1.31-.17,1-.5,1.37-.76.56-1.26.56-.93-.18-1.26-.54Zm-.04,3.62h2.6v15.98h-2.6v-15.98Z"/>
    <path class="cls-1" d="m380.66,121.74c-1.09-.35-1.94-.8-2.55-1.34l1.09-2.29c.63.5,1.4.9,2.31,1.2.9.3,1.82.45,2.74.45,2.28,0,3.42-.72,3.42-2.17,0-.48-.15-.86-.46-1.15-.31-.28-.69-.49-1.15-.62-.46-.13-1.12-.28-1.97-.44-1.16-.2-2.1-.43-2.84-.7-.73-.26-1.36-.7-1.89-1.33-.52-.62-.79-1.5-.79-2.63,0-1.45.54-2.61,1.63-3.48,1.09-.87,2.54-1.31,4.37-1.31.96,0,1.92.13,2.88.39.96.26,1.75.61,2.36,1.06l-1.11,2.29c-1.18-.84-2.56-1.27-4.15-1.27-1.1,0-1.94.2-2.52.6-.58.4-.87.94-.87,1.6,0,.52.16.94.49,1.24.33.3.73.52,1.21.66.48.14,1.15.3,2.02.48,1.16.22,2.09.46,2.81.71.71.25,1.33.68,1.83,1.28.51.6.76,1.45.76,2.53,0,1.45-.56,2.6-1.67,3.45-1.11.85-2.63,1.28-4.55,1.28-1.18,0-2.31-.18-3.39-.53Z"/>
    <path class="cls-1" d="m401.54,121.15c-.38.36-.85.64-1.41.83-.56.19-1.14.29-1.74.29-1.45,0-2.57-.43-3.36-1.3-.8-.86-1.19-2.1-1.19-3.71v-8.77h-2.44v-2.38h2.44v-3.5h2.61v3.5h4.12v2.38h-4.12v8.65c0,.86.19,1.53.58,1.99.39.46.94.7,1.67.7.8,0,1.47-.25,2.04-.75l.81,2.08Z"/>
    <path class="cls-1" d="m413.87,107.58c1.06,1.09,1.59,2.7,1.59,4.86v9.65h-2.47v-2.11c-.43.75-1.06,1.31-1.86,1.7-.81.39-1.76.59-2.86.59-1.61,0-2.9-.43-3.87-1.3-.97-.86-1.45-2-1.45-3.41s.46-2.54,1.39-3.39c.92-.85,2.39-1.28,4.39-1.28h4.13v-.57c0-1.25-.33-2.2-.98-2.87-.65-.66-1.61-.99-2.88-.99-.85,0-1.68.15-2.5.47s-1.5.73-2.06,1.25l-1.09-2.17c.74-.66,1.63-1.17,2.66-1.52,1.03-.35,2.13-.53,3.28-.53,1.99,0,3.52.54,4.58,1.63Zm-1.89-3.8l-2.5-2.32-2.5,2.32h-2.36l3.61-3.92h2.5l3.61,3.92h-2.36Zm-.71,15.52c.72-.49,1.25-1.19,1.58-2.1v-2.23h-4.02c-2.21,0-3.31.82-3.31,2.47,0,.8.28,1.44.84,1.9.56.46,1.34.69,2.33.69s1.86-.25,2.58-.74Z"/>
    <path class="cls-1" d="m431.49,107.72c1.08,1.18,1.61,2.9,1.61,5.17v9.2h-2.6v-8.87c0-1.55-.34-2.71-1-3.5-.67-.78-1.63-1.18-2.88-1.18-1.41,0-2.53.46-3.34,1.37-.82.92-1.22,2.23-1.22,3.94v8.23h-2.61v-15.98h2.5v2.41c.52-.82,1.23-1.46,2.13-1.9.9-.44,1.91-.66,3.05-.66,1.83,0,3.28.59,4.36,1.76Z"/>
    <path class="cls-1" d="m439.66,121.22c-1.15-.7-2.05-1.67-2.7-2.91-.65-1.24-.98-2.64-.98-4.21s.33-2.97.98-4.21c.65-1.24,1.55-2.2,2.7-2.89,1.15-.69,2.46-1.04,3.92-1.04,1.3,0,2.46.29,3.49.87,1.02.58,1.81,1.43,2.37,2.53l-1.98,1.42c-.45-.77-1.01-1.34-1.68-1.72-.67-.38-1.41-.57-2.23-.57-.94,0-1.79.23-2.54.69-.75.46-1.34,1.12-1.76,1.98s-.64,1.83-.64,2.94.21,2.12.64,2.97c.43.86,1.01,1.51,1.76,1.98.75.46,1.6.7,2.54.7.82,0,1.56-.19,2.23-.57.67-.38,1.23-.96,1.68-1.72l1.98,1.39c-.56,1.11-1.35,1.95-2.37,2.55-1.02.59-2.19.89-3.49.89-1.47,0-2.77-.35-3.92-1.06Z"/>
    <path class="cls-1" d="m452.09,102.49c-.34-.36-.5-.8-.5-1.33s.17-.97.5-1.34c.34-.37.76-.56,1.26-.56s.93.18,1.26.53c.33.35.5.79.5,1.31s-.17,1-.5,1.37c-.34.37-.76.56-1.26.56s-.93-.18-1.26-.54Zm-.04,3.62h2.61v15.98h-2.61v-15.98Z"/>
    <path class="cls-1" d="m468.7,107.58c1.06,1.09,1.59,2.7,1.59,4.86v9.65h-2.47v-2.11c-.43.75-1.05,1.31-1.86,1.7-.81.39-1.76.59-2.86.59-1.61,0-2.9-.43-3.87-1.3-.97-.86-1.45-2-1.45-3.41s.46-2.54,1.38-3.39c.92-.85,2.39-1.28,4.4-1.28h4.12v-.57c0-1.25-.32-2.2-.98-2.87-.65-.66-1.61-.99-2.88-.99-.85,0-1.68.15-2.5.47-.82.31-1.5.73-2.06,1.25l-1.08-2.17c.74-.66,1.63-1.17,2.66-1.52,1.03-.35,2.13-.53,3.28-.53,1.99,0,3.51.54,4.57,1.63Zm-2.59,11.72c.72-.49,1.25-1.19,1.57-2.1v-2.23h-4.02c-2.21,0-3.31.82-3.31,2.47,0,.8.28,1.44.84,1.9.56.46,1.34.69,2.33.69s1.86-.25,2.58-.74Z"/>
  </g>
  <g>
    <path class="cls-1" d="m295.95,61.97c-1.51-.98-3.35-1.48-5.51-1.49-1.64,0-3.1.31-4.38.92-1.28.6-2.37,1.45-3.26,2.53-.88,1.09-1.55,2.37-2.01,3.84-.46,1.46-.7,3.07-.7,4.8,0,1.25.14,2.46.41,3.62.29,1.17.72,2.26,1.3,3.26.59,1,1.34,1.89,2.27,2.65.92.75,2.02,1.34,3.31,1.76,1.29.42,2.78.64,4.45.65,1.41,0,2.81-.16,4.2-.5,1.38-.34,2.69-.89,3.91-1.63l-1.75-3.98c-.81.47-1.71.84-2.65,1.12-.95.28-2.01.42-3.17.43-1.29,0-2.41-.25-3.36-.72-.96-.48-1.7-1.15-2.23-2.03-.54-.86-.83-1.89-.87-3.08h14.71v-1.36c0-2.55-.41-4.75-1.2-6.58-.8-1.83-1.96-3.23-3.48-4.22Zm-10.08,8.13c0-.94.18-1.8.52-2.58.35-.78.86-1.41,1.52-1.89.66-.47,1.47-.72,2.43-.73.76,0,1.42.15,1.97.45.55.29,1,.68,1.35,1.17.36.49.62,1.05.8,1.67.18.61.28,1.25.3,1.92h-8.89Z"/>
    <path class="cls-1" d="m231.5,60.48c-1.15,0-2.23.27-3.24.8-1.01.53-2.04,1.32-3.07,2.36l-.63-2.57h-4.91v22.96h5.78v-16.21c.62-.55,1.2-.99,1.72-1.33.51-.33,1.01-.58,1.49-.73.48-.16.96-.23,1.46-.23.34,0,.74.04,1.18.15.44.1.93.32,1.44.62l2.04-4.9c-.47-.31-1-.55-1.57-.69-.57-.16-1.14-.23-1.68-.23Z"/>
    <polygon class="cls-1" points="261.07 61.07 262.23 65.58 271.02 65.58 260.39 84.03 279.28 84.03 279.28 79.52 268.93 79.52 279.47 61.07 261.07 61.07"/>
    <path class="cls-1" d="m212.37,78.99c-1.27.4-2.69.61-4.26.62-1.64,0-3.12-.29-4.43-.83-1.31-.55-2.43-1.33-3.35-2.34-.92-1.01-1.63-2.21-2.12-3.61-.49-1.39-.74-2.94-.74-4.63,0-1.59.23-3.08.69-4.47.46-1.39,1.14-2.62,2.05-3.68.91-1.06,2.03-1.89,3.39-2.49,1.35-.6,2.91-.91,4.7-.92,1.54,0,3,.19,4.36.55,1.36.37,2.66.88,3.89,1.54v-5.44c-1-.45-2.22-.82-3.63-1.11-1.43-.28-3.01-.43-4.77-.44-2.07,0-3.97.29-5.72.85-1.74.55-3.3,1.34-4.68,2.36-1.38,1.02-2.56,2.22-3.52,3.6-.97,1.38-1.71,2.91-2.22,4.57-.51,1.66-.76,3.42-.77,5.28,0,2.35.35,4.51,1.05,6.47.7,1.96,1.73,3.66,3.1,5.1,1.37,1.44,3.06,2.55,5.07,3.35,2,.79,4.33,1.19,6.95,1.2,1.07,0,2.16-.07,3.27-.23,1.11-.15,2.23-.41,3.38-.78,1.15-.37,2.32-.88,3.5-1.52l-1.6-4.61c-1.13.66-2.33,1.21-3.61,1.61Z"/>
    <g>
      <rect class="cls-1" x="304.13" y="61.06" width="5.83" height="22.96"/>
      <path class="cls-1" d="m308.88,52.34c-.53-.3-1.14-.46-1.83-.46-.69,0-1.3.16-1.83.48-.52.31-.95.72-1.24,1.25-.31.52-.46,1.11-.47,1.77,0,.66.16,1.24.47,1.75.3.52.72.92,1.24,1.23.53.3,1.14.46,1.83.46.69,0,1.3-.17,1.83-.48.55-.31.97-.72,1.28-1.24.31-.52.47-1.09.48-1.73,0-.67-.17-1.27-.48-1.79-.31-.52-.74-.94-1.28-1.24Z"/>
    </g>
    <path class="cls-1" d="m257.13,78.35v-17.28h-5.83v16.46c-.34.38-.76.72-1.26,1.03-.49.31-1.03.55-1.62.73-.59.19-1.2.28-1.83.28-.88,0-1.6-.17-2.17-.53-.57-.35-.99-.87-1.28-1.55-.17-.37-.3-.77-.37-1.25-.07-.48-.12-1.01-.12-1.62v-13.54h-5.78v14.13c0,1.06.06,1.97.19,2.73.13.76.32,1.46.59,2.07.36.89.81,1.63,1.36,2.22.54.59,1.13,1.05,1.78,1.38.64.34,1.29.57,1.93.71.65.14,1.26.21,1.82.2,1,0,1.93-.14,2.8-.4.87-.26,1.66-.61,2.38-1.04.72-.43,1.37-.91,1.96-1.43l.87,2.38h4.95c-.16-.61-.27-1.4-.32-2.37-.05-.96-.07-2.06-.06-3.31Z"/>
    <path class="cls-1" d="m456.43,78.35v-17.28h-5.83v16.46c-.34.38-.76.72-1.26,1.03-.5.31-1.03.55-1.62.73-.59.19-1.2.28-1.84.28-.87,0-1.59-.17-2.16-.53-.57-.35-1-.87-1.29-1.55-.17-.37-.29-.77-.37-1.25-.08-.48-.11-1.01-.11-1.62v-13.54h-5.78v14.13c0,1.06.06,1.97.18,2.73.13.76.33,1.46.6,2.07.35.89.81,1.63,1.35,2.22.54.59,1.14,1.05,1.78,1.38.64.34,1.29.57,1.93.71.65.14,1.26.21,1.83.2,1,0,1.93-.14,2.8-.4.86-.26,1.66-.61,2.38-1.04.72-.43,1.37-.91,1.96-1.43l.87,2.38h4.95c-.16-.61-.28-1.4-.33-2.37-.05-.96-.07-2.06-.06-3.31Z"/>
    <path class="cls-1" d="m431.47,68.91c-.82-.75-1.72-1.42-2.7-1.97-.98-.57-1.97-1.09-2.94-1.57-.98-.48-1.89-.97-2.7-1.45-.82-.49-1.48-1.05-1.98-1.66-.5-.61-.75-1.33-.77-2.16.02-.86.23-1.53.64-2.04.41-.5.94-.86,1.6-1.09.66-.23,1.37-.33,2.13-.32,1.26,0,2.53.18,3.81.53,1.28.35,2.55.85,3.81,1.51v-5.34c-.89-.46-2-.83-3.33-1.14-1.34-.3-2.83-.46-4.49-.47-1.67,0-3.14.25-4.43.72-1.29.47-2.38,1.11-3.26,1.94-.89.82-1.55,1.75-2.02,2.81-.45,1.06-.69,2.17-.69,3.37.02,1.38.27,2.58.77,3.58.49,1.01,1.16,1.88,1.97,2.61.82.74,1.72,1.38,2.7,1.93s1.96,1.08,2.95,1.56c.98.49,1.89.99,2.7,1.51.82.51,1.48,1.1,1.97,1.75.51.65.76,1.41.77,2.3,0,.69-.17,1.28-.46,1.76-.3.49-.7.87-1.2,1.17-.51.3-1.08.52-1.72.66-.63.14-1.29.2-1.96.2-.97,0-1.89-.11-2.75-.31-.86-.2-1.66-.48-2.41-.83-.75-.36-1.44-.75-2.07-1.19l-2.28,4.46c.82.57,1.73,1.06,2.75,1.47,1.02.41,2.12.73,3.28.96,1.17.23,2.37.34,3.63.34,1.65,0,3.16-.22,4.55-.64,1.38-.41,2.59-1.02,3.61-1.82,1.02-.8,1.82-1.76,2.39-2.89.57-1.13.85-2.4.86-3.83-.02-1.44-.27-2.69-.77-3.73-.49-1.05-1.16-1.95-1.98-2.7Z"/>
    <path class="cls-1" d="m469.17,79.08c-.26.1-.52.17-.8.22-.29.05-.5.07-.66.07-.54.02-.95-.14-1.25-.45-.3-.31-.45-.86-.45-1.64v-27.63h-5.78v29.18c0,1.82.49,3.21,1.45,4.14.97.93,2.41,1.4,4.33,1.4.66,0,1.37-.06,2.12-.2.75-.13,1.47-.34,2.15-.63l-1.12-4.47Z"/>
    <path class="cls-1" d="m402.63,63.89c-1.01-1.08-2.23-1.91-3.64-2.5-1.41-.6-2.97-.9-4.69-.91-1.72,0-3.28.31-4.68.91-1.4.59-2.61,1.43-3.62,2.5-1.01,1.07-1.79,2.35-2.34,3.81-.55,1.45-.82,3.05-.83,4.78,0,1.73.28,3.32.83,4.79.54,1.46,1.33,2.73,2.34,3.81,1.01,1.09,2.22,1.92,3.62,2.52,1.4.6,2.96.91,4.68.91,1.72,0,3.28-.31,4.69-.91,1.41-.6,2.62-1.44,3.64-2.52,1.02-1.08,1.81-2.35,2.35-3.81.55-1.47.83-3.06.83-4.79,0-1.73-.28-3.33-.83-4.78-.55-1.46-1.34-2.73-2.35-3.81Zm-3.41,12.4c-.42,1.11-1.03,1.97-1.86,2.61-.82.63-1.84.95-3.05.96-1.21,0-2.23-.33-3.05-.96-.83-.63-1.44-1.5-1.86-2.61-.41-1.1-.62-2.38-.62-3.81s.21-2.68.62-3.78c.42-1.1,1.03-1.96,1.86-2.59.82-.63,1.84-.96,3.05-.97,1.21,0,2.23.33,3.05.97.83.63,1.44,1.49,1.86,2.59.41,1.1.62,2.35.62,3.78s-.21,2.71-.62,3.81Z"/>
    <path class="cls-1" d="m348.82,63.89c-1.01-1.08-2.23-1.91-3.64-2.5-1.41-.6-2.97-.9-4.69-.91-1.71,0-3.27.31-4.67.91-1.4.59-2.6,1.43-3.61,2.5-1.01,1.07-1.79,2.35-2.35,3.81-.54,1.45-.81,3.05-.82,4.78,0,1.73.28,3.32.82,4.79.56,1.46,1.33,2.73,2.35,3.81,1.01,1.09,2.21,1.92,3.61,2.52,1.4.6,2.96.91,4.67.91,1.72,0,3.28-.31,4.69-.91,1.4-.6,2.62-1.44,3.64-2.52,1.02-1.08,1.81-2.35,2.35-3.81.55-1.47.82-3.06.83-4.79,0-1.73-.28-3.33-.83-4.78-.55-1.46-1.34-2.73-2.35-3.81Zm-3.41,12.4c-.42,1.11-1.03,1.97-1.86,2.61-.82.63-1.83.95-3.06.96-1.21,0-2.23-.33-3.05-.96-.83-.63-1.44-1.5-1.86-2.61-.41-1.1-.62-2.38-.62-3.81s.21-2.68.62-3.78c.42-1.1,1.03-1.96,1.86-2.59.82-.63,1.84-.96,3.05-.97,1.22,0,2.24.33,3.06.97.83.63,1.44,1.49,1.86,2.59.42,1.1.63,2.35.63,3.78s-.21,2.71-.63,3.81Z"/>
    <path class="cls-1" d="m325.78,60.48c-1.15,0-2.23.27-3.25.8-1.01.53-2.03,1.32-3.06,2.36l-.63-2.57h-4.9v22.96h5.78v-16.21c.62-.55,1.2-.99,1.72-1.33.52-.33,1.01-.58,1.49-.73.48-.16.97-.23,1.46-.23.34,0,.74.04,1.18.15.45.1.93.32,1.44.62l2.04-4.9c-.47-.31-1-.55-1.57-.69-.58-.16-1.14-.23-1.69-.23Z"/>
    <path class="cls-1" d="m375.09,60.77c-.31-.06-.66-.12-1.02-.16-.37-.04-.74-.07-1.1-.1-.37-.03-.69-.03-.98-.03-1.83,0-3.52.31-5.04.9-1.53.58-2.86,1.42-3.98,2.51-1.13,1.09-2,2.38-2.62,3.88-.61,1.5-.93,3.16-.94,5,0,1.89.34,3.57.99,5.03.66,1.46,1.56,2.69,2.75,3.68,1.17,1,2.55,1.75,4.13,2.27,1.59.51,3.32.77,5.2.77.95,0,1.93-.06,2.94-.2,1-.13,1.98-.31,2.93-.57.96-.25,1.82-.56,2.58-.94v-33.17h-5.83v11.12Zm0,18.55c-.26.1-.56.17-.87.23-.32.06-.65.1-.96.13-.32.03-.62.03-.89.03-1.4,0-2.63-.28-3.68-.83-1.05-.55-1.86-1.35-2.46-2.4-.59-1.05-.89-2.32-.89-3.81,0-1.58.31-2.91.91-4.02.6-1.1,1.43-1.95,2.48-2.53,1.04-.58,2.25-.88,3.6-.88.57,0,1.06.03,1.5.1.42.06.85.14,1.27.25v13.74Z"/>
  </g>
  <g>
    <rect class="cls-3" x="505.51" y="61.59" width="5.72" height="22.56"/>
    <path class="cls-3" d="m510.17,53.04c-.53-.29-1.13-.44-1.81-.45-.67,0-1.27.16-1.79.47-.51.3-.93.71-1.22,1.23-.31.51-.46,1.1-.46,1.74,0,.64.16,1.22.46,1.72.29.51.71.91,1.22,1.21.53.29,1.12.44,1.79.45.68,0,1.28-.17,1.81-.47.53-.3.95-.71,1.26-1.22.3-.51.46-1.07.47-1.7,0-.66-.17-1.25-.47-1.76-.31-.52-.72-.92-1.26-1.23Z"/>
    <path class="cls-3" d="m603.9,79.28c-.26.09-.52.16-.79.21-.28.05-.49.07-.64.07-.53.02-.94-.13-1.23-.44-.28-.3-.44-.84-.44-1.61v-27.14h-5.68v28.67c0,1.79.48,3.15,1.42,4.06.95.91,2.37,1.37,4.25,1.37.65,0,1.35-.06,2.08-.19.74-.13,1.44-.34,2.12-.62l-1.1-4.38Z"/>
    <path class="cls-3" d="m526.29,61.01c-1.13,0-2.19.27-3.19.78-.99.52-2,1.3-3.01,2.32l-.62-2.53h-4.82v22.56h5.68v-15.94c.61-.53,1.18-.97,1.69-1.3.51-.32.99-.57,1.46-.71.47-.15.95-.22,1.43-.22.33,0,.72.04,1.16.15.44.11.91.31,1.41.61l2-4.82c-.46-.31-.98-.54-1.54-.68-.56-.16-1.12-.23-1.65-.23Z"/>
    <path class="cls-3" d="m490.85,69.74c-.49,1.26-.93,2.42-1.31,3.49-.37,1.07-.71,2.05-1.03,2.95h-.09c-.34-.93-.69-1.92-1.06-2.98-.37-1.05-.78-2.19-1.23-3.41l-6.58-17.07h-6.25l12.83,31.62h4.63l12.83-31.62h-6.2l-6.54,17.03Z"/>
    <path class="cls-3" d="m591.51,78.37v-9.16c0-2.72-.75-4.77-2.25-6.14-1.51-1.37-3.78-2.06-6.81-2.06-1.57,0-3.09.19-4.54.57-1.45.38-2.85.94-4.19,1.68l1.86,3.67c.82-.45,1.73-.81,2.73-1.11,1-.3,2.06-.46,3.19-.46.88,0,1.64.12,2.29.39.65.27,1.15.67,1.51,1.23.36.56.53,1.27.54,2.15v.72l-3.87.14c-1.14.05-2.2.17-3.18.37-.97.21-1.85.51-2.64.92-1.19.59-2.11,1.38-2.79,2.38-.67,1-1.01,2.26-1.03,3.78.02,1.45.34,2.72.99,3.8.64,1.07,1.54,1.91,2.65,2.5,1.13.59,2.4.89,3.85.9.94,0,1.8-.12,2.58-.35.78-.23,1.48-.54,2.14-.94.64-.38,1.23-.83,1.77-1.33l.86,2.15h4.77c-.16-.6-.28-1.38-.34-2.35-.07-.97-.09-2.12-.09-3.43Zm-5.68.1c-.25.21-.59.45-1.01.71-.42.25-.92.48-1.48.66-.57.19-1.2.29-1.9.3-1.03-.01-1.85-.28-2.44-.82-.59-.53-.89-1.3-.89-2.28,0-.57.11-1.08.33-1.52.22-.43.57-.79,1.05-1.05.38-.21.84-.38,1.38-.5.54-.12,1.18-.19,1.92-.22l3.05-.09v4.82Z"/>
    <path class="cls-3" d="m543.97,79.71c-.59.22-1.21.33-1.89.34-.74.01-1.29-.2-1.65-.64-.36-.44-.54-1.18-.54-2.22v-11.16h5.44l1.38-4.44h-6.82v-6.92l-5.68,1.67v5.25h-4.05v4.44h4.05v12.54c0,1.26.26,2.35.78,3.25.52.9,1.25,1.6,2.21,2.08.96.48,2.11.72,3.45.73.76,0,1.53-.07,2.35-.21.8-.14,1.57-.34,2.3-.6.74-.26,1.38-.58,1.93-.95l-1.72-3.91c-.44.3-.95.55-1.54.76Z"/>
    <path class="cls-3" d="m568.77,78.56v-16.98h-5.73v16.17c-.33.38-.74.71-1.23,1.01-.49.3-1.01.54-1.59.71-.58.18-1.18.27-1.8.28-.86,0-1.57-.17-2.13-.52-.55-.35-.98-.86-1.26-1.53-.17-.35-.28-.76-.36-1.22-.07-.47-.11-.99-.11-1.59v-13.31h-5.68v13.88c0,1.04.06,1.93.18,2.69.13.75.32,1.43.58,2.03.35.88.79,1.61,1.33,2.18.53.58,1.11,1.03,1.75,1.36.63.34,1.27.57,1.9.7.64.13,1.23.21,1.79.2.98,0,1.9-.13,2.75-.39.85-.25,1.63-.59,2.34-1.02.71-.42,1.35-.89,1.92-1.4l.86,2.34h4.87c-.16-.61-.27-1.38-.32-2.33-.05-.95-.07-2.03-.06-3.25Z"/>
  </g>
</svg>